<svg xmlns="http://www.w3.org/2000/svg" viewBox="0 0 250 250">
  
<g transform="matrix(1.25,0,0,1.25,0,0)"><g>
    <path d="M63.19,162l-16.54,2.78a15.84,15.84,0,0,1-18.26-12.94l-15.08-93L95.78,45a.19.19,0,0,0-.07-.37L13.25,58.48l-.68-4.2A15.84,15.84,0,0,1,25.51,36L143.7,16.17A15.81,15.81,0,0,1,162,29.1l.7,4.29-56.53,9.49a.19.19,0,0,0,0,.38c.1,0,.24,0,56.56-9.5l6.83,42.16.23-1L162.32,29A16.18,16.18,0,0,0,143.63,15.8L25.45,35.65A16.22,16.22,0,0,0,12.2,54.34L28,151.91a16.22,16.22,0,0,0,18.69,13.25l16.54-2.78A.19.19,0,0,0,63.19,162Z" style="fill: #3B29AB"></path>
    <path d="M178.15,126.62l-8.09-49.9-.23,1,7.95,49a15.84,15.84,0,0,1-12.95,18.25L69.09,161a.19.19,0,0,0,.06.37l95.75-16.08A16.23,16.23,0,0,0,178.15,126.62Z" style="fill: #3B29AB"></path>
    <g>
      <path d="M164.43,98.44l5-22.08-14.27.52-5.12,4.68a23.38,23.38,0,0,1,5.19,1.76,6.48,6.48,0,0,1,1.9,1.24c.78.89-3.39-.39-5.45-.61a5,5,0,0,1,1.11.84c.53.6-1.72-.21-3.77-.55a3.56,3.56,0,0,0-1.19-.1c2,.89,5.05,2.58,5.78,3.88.88,1.58-3.62-1.55-6.53-1.64,1.85.86,3.86,2,4.59,3.37,1,1.8-2.58-1.49-6.84-1.63h0c4.07,2.46,6,4.49.2,2a10.19,10.19,0,0,0-3.35-.87l-11.6,10.62C167,98.42,164.4,98.57,164.43,98.44Z" style="fill: #3B29AB"></path>
      <polygon points="173.66 60.87 165.21 98.08 186.41 75.66 194.85 38.5 173.66 60.87" style="fill: #3B29AB"></polygon>
    </g>
    <path d="M72,119a11,11,0,0,1-15.5.83L37.78,103a25.91,25.91,0,0,1,12.48-13.9l12.45,11.19c8.45-21.34,17.46-23,20.36-25.48,5.77,4.55,8.56,6.25,16.12,7.66-1.88,18.54-.89,40.07-3.81,52.28a17.86,17.86,0,0,1-4.06,7.73L78,157.32A29.61,29.61,0,0,1,64,144.82l12.63-14,3.07-20.43C104.06,83.27,96.07,92.16,72,119Z" style="fill: #fb663d"></path>
    <path d="M157.44,84.37a6.88,6.88,0,0,0-2-1.29c-2.66-1.31-3.24-1.34-30.19-7.89l-7.59-6.3c.23-.93.17-1.53-.19-1.77-.1-.07.42.38-17-15.33a16.1,16.1,0,0,1,.64-7.23c5.35,1.88,6.75-2.83,5.64-8.37a2.18,2.18,0,0,0,.37-3.36,2.18,2.18,0,0,0-.17-3.78,2.19,2.19,0,0,0-1.26-3.53,2.17,2.17,0,0,0-2.27-2.87,2.18,2.18,0,0,0-3.06-2,2.19,2.19,0,0,0-3.62-.95,2.3,2.3,0,0,0-3.93.19,2.19,2.19,0,0,0-3,.31,2.7,2.7,0,0,0-4-1.81,2.81,2.81,0,0,0-5.06.25,2.67,2.67,0,0,0-3.78,3,2.68,2.68,0,0,0-1.14,4.73A2.67,2.67,0,0,0,77.35,31a2.68,2.68,0,0,0,4.08,2.61A2.62,2.62,0,0,0,83.26,35,2.18,2.18,0,0,0,85,37.46a2.18,2.18,0,0,0,2.29,2.86,2.19,2.19,0,0,0,3.08,2,2.18,2.18,0,0,0,3.63.91,3.46,3.46,0,0,0,1.83,1.07c-2.13,3.8-6.06,7.21-7.79,10.86-4.5,9.49-2.75,12.64-5.12,19.49-3.78,2.71-12,4.82-20.27,25.28L50.42,89a.21.21,0,0,0-.28,0,24.62,24.62,0,0,0-3.71,2.32c-6.31-5-6.81-5.14-11.93-10.73a.18.18,0,0,0-.17-.06C23.91,81.92,11.86,85.5,6.68,88a.18.18,0,0,0,0,.34,55,55,0,0,0,24,3.43l8.59,7.72a27.58,27.58,0,0,0-1.56,3.18.57.57,0,0,0,.15.66l18.5,16.62a11.18,11.18,0,0,0,15.77-.84l7.32-8.15-3,19.76L64.05,144.54a.47.47,0,0,0-.06.56,34.92,34.92,0,0,0,2.11,3.13c-6.54,8-11.44,12.54-11.49,12.82-1.06,6.25-.55,20.48,1.45,27a.19.19,0,0,0,.34.05c5.2-8.64,7.08-14,9.85-23.44l8.1-9a29.65,29.65,0,0,0,3.36,1.75.46.46,0,0,0,.51-.11l13.24-14.74a18,18,0,0,0,4.1-7.81c2.9-12.14,2-33.92,3.81-52.26l1.9-3.43,2.52,2.13c.39.35,1.4-.11,1.95-.66L113,86.05a11.61,11.61,0,0,0,5.72,2.18c.23,0,23.13.71,26.23,2.06a11.55,11.55,0,0,0,3.5,1.16c.29,0,.34-.11.39-.19.28-.55-1.72-2-3.26-2.92,3.54.42,6,2.57,6.47,2,.16-.17,0-.47-.12-.73a9.27,9.27,0,0,0-3.68-3c2.2.51,4.66,2,5.42,2,.31,0,.5-.24.22-.73-.75-1.34-3-2.6-4.95-3.5,1.55.26,3.21.74,3.82.74.43,0,.52-.27.28-.55a3.54,3.54,0,0,0-.44-.41c1.54.27,3.62.81,4.44.81C157.62,85,157.7,84.67,157.44,84.37ZM116.83,67.05c-1.15.28-2.82,2.17-3.58,3.09l-.37-.33c0-.11.44-1.46-.19-1.86L102,58.3a30.13,30.13,0,0,1-1.44-5.92ZM96.1,44.59c1.44-2.52,2.2-5.65.74-8.08a.16.16,0,0,0-.1-.08c-2.54-.84-1.5-3.78.19-2.63.6.42,1.39.81,1.57.09a1.27,1.27,0,0,1,.36-.77,2.18,2.18,0,0,0,3.78-.18,2.18,2.18,0,0,0,2.73,0c1.21,2.94,2.25,8.77,0,10.9-1.2,1.11-3.12,1-5.72-.35-.12-.07-.36,0-.2.36s.35.76.88,1.92a16.39,16.39,0,0,0-.37,4.37c-1.5,2.11-4.42-.19-6.32-2A28.77,28.77,0,0,0,96.1,44.59ZM31.42,91.89a35.29,35.29,0,0,1,6.28-7.44,90.62,90.62,0,0,0,8.42,7,26.46,26.46,0,0,0-6.65,7.64ZM66.1,164.28a33.87,33.87,0,0,1-7.24-7.2c2.73-2.94,5.26-5.84,7.45-8.51A31.48,31.48,0,0,0,74,155.51Zm29.1-29.61a17.66,17.66,0,0,1-4,7.65l-8.87,9.88a33.33,33.33,0,0,1-13.83-12c8.8-9.8,8.36-9.27,8.37-9.37l1.55-10.32L94.65,94a.19.19,0,0,0-.3-.22l-22.49,25a10.81,10.81,0,0,1-15.24.81l-14.48-13a43.59,43.59,0,0,1,5.47-7.86c17.52,13.87,16.34,13,16.44,13s-.17.4,17.17-25.07a19,19,0,0,0,6.55-3.24.19.19,0,0,0-.23-.3,19.93,19.93,0,0,1-12.65,3.92.19.19,0,0,0,0,.38,22.64,22.64,0,0,0,5.77-.62L64,111.28,47.86,98.49A31.5,31.5,0,0,1,54.33,93l8.27,7.42a.18.18,0,0,0,.28-.08C71,80.1,79,77.9,83.06,75c5.53,4.35,8.4,6.16,15.92,7.59C97.13,101,98.09,122.55,95.2,134.67Zm8.31-54.2L92.44,71.09a.19.19,0,0,0-.28.25c6.44,10,6.93,10.89,6.93,10.89-7.47-1.41-10.31-3.2-15.8-7.52,2.37-6.93.61-9.95,5.08-19.38,1.11-2.34,3.12-4.56,5-6.88,1.86,1.77,4.8,4.11,6.59,2.27a28.61,28.61,0,0,0,1.43,7.07l-6.55-5.88c-.18-.17-.43.11-.25.28l17.48,15.7C109.46,68.54,103.34,77.47,103.51,80.47Zm49.18,4.31c-.67,0-3.43-.82-5-.9a22.44,22.44,0,0,0-2.39-.85.19.19,0,0,0-.08.37c1.81.38,7.78,3,8.41,4.87a9.33,9.33,0,0,1-1.72-.65,15.05,15.05,0,0,0-4.75-1.47c-1.11-.52-2.08-.89-2.46-1a.19.19,0,0,0-.13.35c2,.71,6.38,2.64,7.14,4.61-.81-.22-3.63-2.06-6.83-2.18l-.65-.39a.19.19,0,0,0-.19.33c2.84,1.66,4.28,2.87,4.43,3.22-.16,0-.84,0-3.38-1.13-3.16-1.37-25.42-2.06-26.35-2.08a11.31,11.31,0,0,1-5.53-2.11l-9-6.87c1.1-3.21,4.59-8.28,7-10.08L120.36,77c.1.09-.8-.13,25.78,5.1C148,82.59,151.53,83.57,152.69,84.78Zm-.86-1.08a28.66,28.66,0,0,0-5.59-2l-25.67-5-7-6.25A15.45,15.45,0,0,1,115.94,68l9.11,7.56s23.07,5.64,24.27,5.94a28.79,28.79,0,0,1,6,2,6.33,6.33,0,0,1,1.86,1.2C156.5,84.71,153.39,83.87,151.83,83.7Z" style="fill: #3B29AB"></path>
    <path d="M123.77,34.33a4.2,4.2,0,1,1,4.15-4.89A4.2,4.2,0,0,1,123.77,34.33Zm-3-6.36a3.71,3.71,0,1,0,6.68,1.55A3.71,3.71,0,0,0,120.76,28Z" style="fill: #3B29AB"></path>
    <path d="M134.53,32.55a4.2,4.2,0,1,1,4.15-4.89A4.19,4.19,0,0,1,134.53,32.55Zm-3-6.36a3.71,3.71,0,1,0,6.68,1.55A3.71,3.71,0,0,0,131.52,26.19Z" style="fill: #3B29AB"></path>
    <path d="M149.62,25.85a4.2,4.2,0,1,0-3.46,4.83A4.19,4.19,0,0,0,149.62,25.85Z" style="fill: #3B29AB"></path>
    <path d="M37.89,20.56l-5-3.52,3.52-4.95a.19.19,0,0,0-.3-.22l-3.52,5-5-3.52c-.2-.15-.42.16-.22.31l5,3.51-3.52,5a.19.19,0,0,0,.15.3c.15,0-.08.25,3.68-5,5.26,3.74,5,3.56,5.06,3.56A.19.19,0,0,0,37.89,20.56Z" style="fill: #3B29AB"></path>
    <path d="M31.55,114.31c-.13-.11,1.5-.66-24.36,7.73a.19.19,0,0,0-.06.32L14,128.45l-9.12,10a.19.19,0,0,0,0,.27c5.32,4.68,5,4.45,5.08,4.45s-.49.63,9.26-10.1l6.85,6.09a.19.19,0,0,0,.31-.1C32,112.87,31.67,114.43,31.55,114.31ZM19.07,132.72l-9.12,10L5.27,138.6c9.82-10.81,9.17-10,9.16-10.18s.4.28-6.81-6.12l14.73-4.73,3.36,20.81-6.38-5.68A.19.19,0,0,0,19.07,132.72Z" style="fill: #3B29AB"></path>
    <path d="M129.83,136.36c-.1,0-.09,0-14.76-4.56a.19.19,0,0,1,0-.34l12.37-8.6a.19.19,0,0,1,.21.31l-12,8.38L129.88,136A.18.18,0,0,1,129.83,136.36Z" style="fill: #3B29AB"></path>
    <path d="M141.8,134.09l12-8.86-14.24-4a.19.19,0,1,1,.1-.36c10.7,2.84,13.65,3.69,14.45,4,.36.14.45.22.09.53-.67.55-3.15,2.37-12.15,9A.19.19,0,0,1,141.8,134.09Z" style="fill: #3B29AB"></path>
    <path d="M131.76,141.79l5.37-26.18a.19.19,0,0,1,.22-.15.2.2,0,0,1,.15.23l-5.37,26.18A.19.19,0,0,1,131.76,141.79Z" style="fill: #3B29AB"></path>
  </g></g></svg>