<svg xmlns="http://www.w3.org/2000/svg" viewBox="0 0 250 250">
  
<g transform="matrix(1.25,0,0,1.25,0,0)"><g>
    <path d="M172.719,129.2a30.212,30.212,0,0,0,3.205,1.748c.173,0-.075.336,3.387-5.915a.188.188,0,0,0-.074-.255c-3.371-1.867-3.149-1.772-3.257-1.741s.1-.3-3.335,5.907A.189.189,0,0,0,172.719,129.2Zm3.386-5.727,2.786,1.543-3.04,5.489-2.786-1.543Z" style="fill: #3B29AB"></path>
    <path d="M168.723,126.981a29.185,29.185,0,0,0,3.206,1.749c.172,0-.076.337,3.386-5.915a.188.188,0,0,0-.073-.255l-3.115-1.725a.187.187,0,0,0-.255.073l-3.223,5.818A.188.188,0,0,0,168.723,126.981Z" style="fill: #3B29AB"></path>
    <path d="M164.727,124.769a29.368,29.368,0,0,0,3.206,1.748c.172,0-.063.344,3.386-5.914a.189.189,0,0,0-.073-.256c-3.392-1.878-3.15-1.771-3.258-1.742s.095-.285-3.334,5.908A.188.188,0,0,0,164.727,124.769Zm3.386-5.727,2.786,1.543-3.04,5.488-2.785-1.542Z" style="fill: #3B29AB"></path>
    <path d="M187.474,107.423a.189.189,0,0,0-.193-.184l-36.243.784a35.642,35.642,0,0,0-11.568-7,.189.189,0,0,0-.13.354,35.485,35.485,0,1,1-47.7,35.094.188.188,0,0,0-.376.019,35.852,35.852,0,1,0,70.059-12.4c15.788,8.744,15.179,8.435,15.28,8.435.16,0-.2.565,4.411-7.765a.189.189,0,0,0-.073-.256l-13.877-7.685c21.759-.47,20.452-.4,20.548-.5S187.665,116.7,187.474,107.423Zm-29.224,9.588,4.236-.091-2.274,4.105A36.242,36.242,0,0,0,158.25,117.011Zm2.144,4.463,2.527-4.564.73-.015-2.961,5.347C160.594,121.984,160.5,121.729,160.394,121.474Zm3.692-4.589c.182,0-.171-.168,2.817,1.487l-3.04,5.488-2.785-1.542Zm16.507,7.86-4.065,7.338-15.373-8.514q-.159-.483-.332-.962l3.023,1.674a.189.189,0,0,0,.256-.074l3.221-5.817a.188.188,0,0,0-.073-.256l-2.289-1.268,1.354-.029Zm-22.557-8.105a36.2,36.2,0,0,0-6.6-8.249l35.664-.771.181,8.388Z" style="fill: #3B29AB"></path>
    <path d="M185.944,108.327c-3.636.048-3.595.034-3.691.134s-.051-.211.092,6.783a.188.188,0,0,0,.188.184l3.563-.076a.189.189,0,0,0,.184-.193l-.144-6.648A.194.194,0,0,0,185.944,108.327Z" style="fill: #3B29AB"></path>
    <path d="M181.512,108.478c-.1-.1-.006-.059-3.694.024a.188.188,0,0,0-.184.192l.144,6.649a.188.188,0,0,0,.188.184l3.563-.077a.188.188,0,0,0,.184-.192C181.569,108.26,181.612,108.572,181.512,108.478Z" style="fill: #3B29AB"></path>
    <path d="M176.945,108.576c-.1-.1.037-.05-3.694.025a.188.188,0,0,0-.184.192l.144,6.648a.188.188,0,0,0,.188.184l3.564-.076a.189.189,0,0,0,.184-.192C177,108.367,177.045,108.672,176.945,108.576Zm-3.362,6.67-.135-6.273,3.183-.069.136,6.273Z" style="fill: #3B29AB"></path>
    <path d="M172.244,108.623c-3.635.078-3.593.033-3.691.134s-.067-.219.091,6.784a.189.189,0,0,0,.188.184l3.564-.078a.188.188,0,0,0,.184-.191l-.144-6.649A.2.2,0,0,0,172.244,108.623Zm-3.227,6.721-.136-6.272,3.183-.069.136,6.272Z" style="fill: #3B29AB"></path>
    <path d="M167.811,108.773c-.1-.1,0-.058-3.693.025a.189.189,0,0,0-.184.192l.144,6.649a.188.188,0,0,0,.188.184l3.563-.077a.189.189,0,0,0,.185-.192C167.869,108.564,167.912,108.87,167.811,108.773Zm-3.361,6.67-.136-6.273,3.184-.068.135,6.272Z" style="fill: #3B29AB"></path>
    <path d="M125.151,121.388c-.1,0-.119-.028-6.772-2.5a.188.188,0,0,1,.131-.353l6.707,2.491A.188.188,0,0,1,125.151,121.388Z" style="fill: #3B29AB"></path>
    <path d="M97.36,110.679c-33.268-12.332-31.028-11.556-31.137-11.5s.025-.227-1.466,3.788a1.387,1.387,0,0,0-.531-.566L53.915,96.26A1.388,1.388,0,0,0,52.9,96.1l-14.691,1.93a.2.2,0,0,0-.108-.25l-.65-.242L62.042,76.012a1.715,1.715,0,1,0-.248-.284L37.048,97.386c-1.356-.5-1.883-.708-2.107-.782-.157-.051-.231-.068-.3.1-.1.223-.348.923-1.2,3.209a.189.189,0,0,0,.111.242l.236.087L7.828,122.96a1.716,1.716,0,1,0,.256.276l26.1-22.844c2.221.824,2.55.971,2.651.971a.19.19,0,0,0,.177-.122l.008-.024,9.842,11.145a1.4,1.4,0,0,0,.885.542l11.812,2.071a1.393,1.393,0,0,0,.765-.08l-1.456,3.92a.187.187,0,0,0,.11.242c23.995,8.917,23.3,8.678,23.4,8.678a.188.188,0,0,0,.066-.364l-23.16-8.6s1.61-4.111,3.626-9.543c24.049,8.931,23.723,8.835,23.823,8.835a.189.189,0,0,0,.066-.365l-23.759-8.823c1.926-5.193,3.368-9.288,3.368-9.288l30.817,11.446A.188.188,0,0,0,97.36,110.679ZM37.123,99.864l-1.269-.509a.189.189,0,0,0-.211.3l1.1,1.241-.014.038-2.87-1.066L34.922,97l2.87,1.066-.007.019c-.976.128-1.354.168-1.514.2a.188.188,0,0,0-.058.364l1.2.424Zm17.253,5.945a.8.8,0,0,1-1.047.549L37.473,100l.3-.808,16.06,5.649A.837.837,0,0,1,54.376,105.809Z" style="fill: #3B29AB"></path>
    <path d="M152.6,133.228c-.048-.105.293.049-6.222-2.37.623-1.676.621-1.6.575-1.705s.857.214-13.612-5.113a.188.188,0,0,0-.131.353l13.33,4.95L143.1,138.6l-16.182-6.01a.188.188,0,0,0-.131.353l16.181,6.01-3.553,9.569L93.74,131.564a.188.188,0,0,0-.131.353c46.8,17.35,45.813,17.039,45.913,17.039a.188.188,0,0,0,.177-.123l.613-1.652c5.536,2.055,6.081,2.282,6.182,2.282a.188.188,0,0,0,.177-.122C153.005,132.35,152.646,133.336,152.6,133.228Z" style="fill: #3B29AB"></path>
    <path d="M125.632,132.519l-.829-.308a.188.188,0,0,1,.131-.353l.829.308A.188.188,0,0,1,125.632,132.519Z" style="fill: #3B29AB"></path>
    <path d="M123.526,131.737l-1.45-.539a.188.188,0,0,1,.13-.352l1.451.538A.188.188,0,0,1,123.526,131.737Z" style="fill: #3B29AB"></path>
    <path d="M121.856,131.1c-.1,0,.549.225-20.669-7.663a.188.188,0,0,1,.131-.353l20.6,7.652A.188.188,0,0,1,121.856,131.1Z" style="fill: #3B29AB"></path>
    <path d="M139.405,101.2c-.38-1.074-4.91-10.695-6.4-13.406-2.125-3.871-3.871-4.022-5.569-5.617a.368.368,0,0,1-.028-.045,10.239,10.239,0,0,1-4.176-1.336,2.506,2.506,0,0,1-.555.236c.455.747-.774,1.732-1.777,1.883.829-.078.474,1.367-.77,1.584-.272.008-2.417.073-3.405.091-1.191,2.926-3.055.461-3.055-4.115a11.967,11.967,0,0,1,.566-3.867c.3-.84.7-1.391,1.143-1.5l-13.29,1.09a5.972,5.972,0,0,0-1.941,11.407l8.821,3.946-1.084,5.287,16.521,7.808,4.757-10.294v6.139l2.1,3.776-5.35,14.689a16.441,16.441,0,0,0,9.072,3.114l4.507-13.784A11.019,11.019,0,0,0,139.405,101.2Z" style="fill: #fb663d"></path>
    <path d="M194.806,82.669c-2.956.093-4.668-3.37-8.255-1.6a43.945,43.945,0,0,0-6.226-1.544,69.057,69.057,0,0,0-9.028-.9c-4.441-.1-4.555.6-4.593.829s-.153.933,4.088,2.251a69.008,69.008,0,0,0,8.844,2.028,46.2,46.2,0,0,0,6.4.525c2.594,2.466,6.577,1.43,8.923-1.273A.189.189,0,0,0,194.806,82.669Zm-23.9-1.327c-3.108-.966-3.864-1.62-3.829-1.832s.959-.591,4.214-.513a69.089,69.089,0,0,1,9.568,1l-.566,3.455A69.294,69.294,0,0,1,170.9,81.342Zm9.76,2.161.563-3.439a47.985,47.985,0,0,1,5.128,1.335l-.405,2.476A47.959,47.959,0,0,1,180.664,83.5Z" style="fill: #3B29AB"></path>
    <path d="M175.538,45.83a13.819,13.819,0,0,0-15.4-9.876,11.048,11.048,0,0,0-9.432,11.386L146.184,50.7a.188.188,0,0,0,.078.336l5.578,1.031c4.251,9.291,17.227,10.89,22.376,2.86A11.261,11.261,0,0,0,175.538,45.83ZM173.9,54.723c-5.047,7.868-17.72,6.1-21.757-2.9-.085-.149.259-.036-5.388-1.079,4.541-3.375,4.319-3.141,4.329-3.32a10.674,10.674,0,0,1,9.117-11.1,13.443,13.443,0,0,1,14.973,9.6A10.891,10.891,0,0,1,173.9,54.723Z" style="fill: #3B29AB"></path>
    <path d="M162.2,49.281c.642-1.938,3.251-2.324,3.862-4.2a1.943,1.943,0,1,0-3.738-1,.225.225,0,1,1-.444-.074,2.393,2.393,0,1,1,4.607,1.222c-.664,2.046-3.283,2.459-3.86,4.2A.225.225,0,0,1,162.2,49.281Z" style="fill: #3B29AB"></path>
    <path d="M161.9,51.108a.783.783,0,1,0-.542,1.469A.783.783,0,1,0,161.9,51.108Z" style="fill: #3B29AB"></path>
    <path d="M125.994,47.79,120.214,47a.188.188,0,0,1-.162-.207c.323-2.967.273-2.821.373-2.9s-.219-.087,5.9.749a.188.188,0,0,1,.161.207l-.3,2.773A.187.187,0,0,1,125.994,47.79Zm-5.548-1.137,5.382.737.262-2.4-5.383-.736Z" style="fill: #3B29AB"></path>
    <path d="M125.049,29.516a4.96,4.96,0,0,0-5.621,5.984c1.161,3.52,1.26,3.6,1.166,7.217l0,.026a.186.186,0,0,0,.1.142c.054.026,5.638.8,5.715.772l.026-.012a.192.192,0,0,0,.087-.1l.008-.029c.6-3.254.872-3.534,2.673-6.673a4.511,4.511,0,0,0,.449-1.582A5.314,5.314,0,0,0,125.049,29.516Zm3.827,7.142c-1.831,3.015-2.1,3.454-2.681,6.612l-2.424-.333.731-6.706c1.368.187,1.56.22,1.707.22a1.31,1.31,0,0,0,1.316-1.162,1.4,1.4,0,0,0-1.209-1.512l-.534-.072a1.315,1.315,0,0,0-1.509,1.149l-.1.952-1.514-.207a.982.982,0,0,1-.538-1.723.969.969,0,0,1,.736-.192l1.207.163a.188.188,0,0,0,.025-.375l-1.181-.161a1.339,1.339,0,0,0-1.019.269,1.358,1.358,0,0,0,.719,2.391l1.525.209-.731,6.707-2.424-.332a13.869,13.869,0,0,0-1.023-6.671,4.557,4.557,0,0,1,5.047-6A4.867,4.867,0,0,1,128.876,36.658Zm-4.334-.8.105-.961A.912.912,0,0,1,125,34.27c.406-.317.826-.18,1.271-.12a.981.981,0,0,1,.537,1.722.961.961,0,0,1-.736.193Z" style="fill: #3B29AB"></path>
    <path d="M100.548,53.457l-2.523.445a2.226,2.226,0,0,1-2.576-1.8L95,49.575a.188.188,0,0,0-.37.066l.445,2.523a2.227,2.227,0,0,1-1.8,2.576l-2.523.445a.188.188,0,0,0,.065.37l2.523-.445a2.222,2.222,0,0,1,2.576,1.8l.445,2.523a.188.188,0,0,0,.371-.065l-.445-2.523a2.227,2.227,0,0,1,1.8-2.577l2.523-.444A.188.188,0,0,0,100.548,53.457Zm-4.614,2.467a2.615,2.615,0,0,0-1.67-1.169,2.611,2.611,0,0,0,1.168-1.67A2.616,2.616,0,0,0,97.1,54.256,2.612,2.612,0,0,0,95.934,55.924Z" style="fill: #3B29AB"></path>
    <path d="M139.582,101.135c-.384-1.089-4.933-10.742-6.41-13.433-2.168-3.949-3.926-4.073-5.6-5.668a2.889,2.889,0,0,1-.1-2.674,8.4,8.4,0,0,1,1.064-1.788c2.212-2.373,6.666,1.435,6.7,1.471a3.406,3.406,0,0,0,2.047,1.04.807.807,0,0,0,.873-.881,3.437,3.437,0,0,0-1.227-2.131c1.224.2,1.738-1.292-.046-2.943,1.425.4,2.009-1.112.214-2.85a4.631,4.631,0,0,0-.6-.487c-6.514-5.463-10.476-1.2-10.727-.914a11.969,11.969,0,0,0-2.918,4.182,7.549,7.549,0,0,0-2.6,1.163,12.08,12.08,0,0,1-3.405.945c-.146-.333-.62-1.282-1.279-1.26-.1,0,.216-.018-13.5,1.106a6.2,6.2,0,0,0-5.419,4.459,6.713,6.713,0,0,0-3.981.934C73.4,92.865,74.272,92.289,74.23,92.438a1,1,0,0,0,.06.362c-1.929.334-4.808.616-6.318.891-6.289,1.153-7.322,1.814-7.5,2.309-1.036,2.846,8.635,2.824,12.267,5.217a11.653,11.653,0,0,0,3.425,1.657,5.6,5.6,0,0,0,3.266-.933c.36.38.386.433.493.433s-.531.311,13.434-7.195L99.9,109.812l-6.21,2.014a12.448,12.448,0,0,0-7.5,6.743c-9.57,21.364-9,19.983-8.88,20.144.059.06.5.4.561.45-1.932,3.584-4.3,7.638-5.5,10.345-2.842,6.394-2.846,7.716-2.532,8.153,1.917,2.664,7.805-6.038,12.207-7.842a7.636,7.636,0,0,0,2.813-1.879,15.342,15.342,0,0,0,2.455-4.3,7.287,7.287,0,0,0,.838.155c.162-.041-.5,1.233,9.215-19.474,3.871-.893,10.336-2.277,16.985-3.508,9.029-1.673,10.172-15.269,10.231-16.085l3.053-6.607,3.425,6.163c-4.274,11.734-5.174,14.12-5.306,14.636-.044.173,0,.135.028.169.064.056.394.279.464.326a9.72,9.72,0,0,1-2.89,3.49c-1.713,1.249-2.446,2.11-2.18,2.556.425.717,3.051-.5,3.81-.852a25.767,25.767,0,0,1-2.963,5.042c-.454.64-.55,1.178-.257,1.437.686.611,2.24-1.133,2.857-1.824a26.305,26.305,0,0,1-1.357,2.465c-.419.616-.486,1.132-.179,1.38.459.371,1.227-.2,1.649-.646a20.6,20.6,0,0,0,1.535-1.892c-.287.715-.548,1.3-.694,1.595-.729,1.477.394,2.152,1.551.555a19.581,19.581,0,0,0,1.14-1.826c-.062.224-.123.42-.188.6-.338.942-.093,1.228.083,1.314.468.23,1.073-.548,1.356-.991a72.655,72.655,0,0,0,4.835-9.6c.072.005.6.048.667.035.19-.052-.107.663,4.653-13.911A11.26,11.26,0,0,0,139.582,101.135Zm-13.56-30.974c.1-.057,2.274-2.27,3.71-1.224,1.372,1,.35,3.671.45,3.379-.206.6.2.757.826.693.348-.035.688-.078.882.232.321.513-.162,1.469-1.393,1.28a.194.194,0,0,0-.18.068c-.5.637-2.025,2.663-2.122,2.8-.992,1.378-1.836,2.956-1.131,4.5a10.289,10.289,0,0,1-3.483-1.089,2.416,2.416,0,0,0,1.107-1.806c1.055-.335,3.125-1.578,3.529-2.624a.639.639,0,0,0,.013-.515c-.348-.72-2.582.392-3.572.657-.5.134-.978.241-1.442.321a2.41,2.41,0,0,1-.325-1.369c.332-.415.8-1.088.348-1.352A11.62,11.62,0,0,1,126.022,70.161Zm-3.5,5.728a2.335,2.335,0,0,0,.285,1.008,13.564,13.564,0,0,1-1.421.126C121.871,76.577,122.242,76.2,122.527,75.889Zm-2.08-.343c1.858-1.106,2.511-1.169,2.6-1.109,0,0,.127.469-2.224,2.6-.444,0-.918-.018-1.412-.055a.188.188,0,0,0-.028.375,14.983,14.983,0,0,0,5.372-.479c.589-.157,2.907-1.118,3.136-.856a.306.306,0,0,1-.025.215,6.123,6.123,0,0,1-3.181,2.361,21.238,21.238,0,0,1-2.585.507.188.188,0,0,0,.066.37c.5-.088,1.415-.209,2.14-.377a2.213,2.213,0,0,1-1.164,1.536c-.5.286-.593.238-2.358.445a.188.188,0,0,0,.022.375l1.529-.178.018,0a.252.252,0,0,0,.048-.006l.019-.006.156-.018c.241.595-.871,1.3-1.572,1.458-.1.023-1.213.172-1.3.172a.188.188,0,0,0-.015.375c.137.006,1.1-.14,1.362-.162.315.239-.1,1.073-.928,1.221-.244.007-4.819.1-5.655.117a13.228,13.228,0,0,1-.1-7.632,16.425,16.425,0,0,0,2.435-.234A14.839,14.839,0,0,0,120.447,75.546ZM108.1,96.733l2.107-10.269,5.446-.432c.455-.068.87-.5,1.2-1.258.823-.017,2.255-.058,2.948-.08a53.065,53.065,0,0,0-5.7,14.877Zm-3.224-6.806,3.879,1.736-.939,4.581Zm-2.771-13.539L114.7,75.355c-1.631,1.887-1.619,8.706.123,10.365l-13.439,1.064a.189.189,0,0,0,0,.376l8.2.437-.758,3.688c-9.836-4.4-6.674-2.987-8.607-3.849a5.784,5.784,0,0,1,1.879-11.048Zm12.172,44.056c-.528.1-16.959,3.291-17.2,3.609-.061.1.3-.659-9.077,19.347a23.471,23.471,0,0,1-10.319-4.865l8.85-19.812a12.086,12.086,0,0,1,7.275-6.539l15.9-5.154a.188.188,0,0,0-.067-.367l-10.514.489L93.687,95l1.185-.637a.188.188,0,0,0-.179-.331l-14.735,7.92a19.988,19.988,0,0,1-5.333-9.379L92.867,81.73a6.346,6.346,0,0,1,3.695-.888,6.17,6.17,0,0,0,3.512,6.937l4.278,1.914c3.481,7.475,3.319,7.2,3.422,7.3.1.062-.683-.318,16.422,7.766C124.106,105.911,122.9,118.848,114.278,120.444Zm17.147-16.267-2.073-3.733v-6.09a.188.188,0,0,0-.358-.079L124.316,104.4l-9.861-4.661a52.605,52.605,0,0,1,5.8-15.072c1-.215,1.5-1.176,1.188-1.7.693-.251,1.568-.864,1.543-1.587l0-.025a.746.746,0,0,0-.042-.209,2.841,2.841,0,0,0,.284-.127,10.717,10.717,0,0,0,4.083,1.292c1.739,1.634,3.431,1.742,5.535,5.574,1.489,2.714,6.014,12.327,6.386,13.377a10.882,10.882,0,0,1,.083,6.969l-4.462,13.647a16.35,16.35,0,0,1-8.712-2.988C131.76,103.447,131.49,104.294,131.425,104.177ZM129.2,131.619c-.474.743-.818.882-.872.856-.027-.013-.119-.225.106-.85.208-.584.546-1.983.558-2.084.285-.561.518-1.05.659-1.366a.188.188,0,0,0-.343-.154c-.372.835-2.728,5.7-3.518,5.224-.1-.058-.15-.358.123-.912A29.055,29.055,0,0,0,127.1,129.4c.508-.732.935-1.381,1.149-1.725a.188.188,0,0,0-.318-.2,39.707,39.707,0,0,1-3.476,4.729c-.565.59-1.016.714-1.141.613-.085-.069-.092-.368.254-.877a34.78,34.78,0,0,0,2.032-3.859c.376-.481.653-.871.79-1.067a.188.188,0,0,0-.31-.214,22.027,22.027,0,0,1-2.979,3.467c-.636.577-1.013.612-1.095.54-.518-.461,2.236-2.655,3.917-7.612a.188.188,0,0,0-.356-.121c-.121.357-.249.7-.381,1.031a.17.17,0,0,0-.053.016c-2.8,1.332-3.585,1.244-3.643,1.148-.048-.08.165-.665,2.078-2.06a10.069,10.069,0,0,0,2.985-3.586,16.642,16.642,0,0,0,7.4,2.562A72.521,72.521,0,0,1,129.2,131.619Z" style="fill: #3B29AB"></path>
    <path d="M111.9,117.874a.691.691,0,0,0,1.381,0A.691.691,0,0,0,111.9,117.874Z" style="fill: #3B29AB"></path>
    <path d="M118.321,105.53a.691.691,0,0,0,1.381,0A.691.691,0,0,0,118.321,105.53Z" style="fill: #3B29AB"></path>
    <path d="M101.4,103.4a.691.691,0,0,0,1.381,0A.691.691,0,0,0,101.4,103.4Z" style="fill: #3B29AB"></path>
    <path d="M102.536,91.612a.691.691,0,0,0,1.381,0A.691.691,0,0,0,102.536,91.612Z" style="fill: #3B29AB"></path>
    <path d="M92.063,85.485a.691.691,0,0,0,1.381,0A.691.691,0,0,0,92.063,85.485Z" style="fill: #3B29AB"></path>
    <path d="M76.936,92.951a.69.69,0,0,0,1.38,0A.69.69,0,0,0,76.936,92.951Z" style="fill: #3B29AB"></path>
    <path d="M87.346,94.354a.691.691,0,0,0,1.381,0A.691.691,0,0,0,87.346,94.354Z" style="fill: #3B29AB"></path>
    <path d="M92.984,124.348a.691.691,0,0,0,1.381,0A.691.691,0,0,0,92.984,124.348Z" style="fill: #3B29AB"></path>
    <path d="M100.562,112.011a.69.69,0,0,0,1.38,0A.69.69,0,0,0,100.562,112.011Z" style="fill: #3B29AB"></path>
    <path d="M80.761,133.452a.691.691,0,0,0,1.381,0A.691.691,0,0,0,80.761,133.452Z" style="fill: #3B29AB"></path>
    <path d="M73.537,132.106l-3.081-1.4,1.4-3.082a.188.188,0,0,0-.343-.155l-1.4,3.081-3.081-1.4a.188.188,0,0,0-.156.342l3.081,1.4-1.4,3.081a.188.188,0,0,0,.342.156l1.4-3.082c3.007,1.366,3.059,1.417,3.159,1.417A.189.189,0,0,0,73.537,132.106Z" style="fill: #3B29AB"></path>
  </g></g></svg>